<?xml version="1.0" encoding="UTF-8" standalone="no"?><!-- Generator: Gravit.io -->
<svg xmlns="http://www.w3.org/2000/svg"
     style="isolation:isolate" viewBox="0 0 1000 1250" width="1000pt" height="1250pt"><path d=" M 370.95 27.368 C 361.55 32.368 351.25 42.368 347.65 50.068 C 343.25 59.268 342.05 66.468 342.05 81.668 L 342.05 96.168 L 327.55 103.168 C 319.55 106.968 312.15 110.968 311.05 111.968 C 308.85 113.868 292.55 123.668 291.55 123.668 C 291.25 123.668 292.85 121.768 295.05 119.368 C 299.65 114.568 306.55 104.068 308.95 98.268 C 312.85 89.068 311.55 72.168 306.05 57.368 L 303.75 51.168 L 295.25 59.668 C 289.05 65.868 285.85 70.068 283.35 75.168 L 279.95 82.168 L 280.05 99.168 C 280.05 113.568 280.45 117.168 282.15 122.368 L 284.25 128.568 L 273.05 136.568 C 266.95 140.868 257.15 148.268 251.25 153.068 C 245.25 157.768 240.45 161.468 240.45 161.268 C 240.45 160.968 242.25 157.568 244.35 153.468 C 251.75 139.568 252.95 131.368 249.45 116.768 C 247.45 108.668 238.95 90.268 237.35 90.868 C 236.15 91.368 229.45 99.868 226.85 104.268 C 223.05 110.768 220.45 118.468 219.75 125.268 C 218.75 136.368 222.45 153.868 228.35 165.468 L 230.55 169.768 L 220.35 180.468 C 214.75 186.368 206.75 195.168 202.65 200.168 C 198.55 205.068 194.85 209.568 194.35 210.068 C 193.95 210.568 194.85 206.868 196.55 201.768 C 203.05 181.468 198.55 164.468 181.45 145.068 C 177.75 140.868 178.25 140.568 172.95 151.168 C 166.25 164.668 164.85 176.568 168.45 189.168 C 170.85 197.668 176.95 210.468 181.75 217.068 L 185.25 221.868 L 175.95 236.068 C 170.85 243.768 164.15 254.668 160.95 260.168 C 157.85 265.668 155.55 269.068 155.85 267.668 C 156.15 266.268 156.95 261.068 157.55 256.068 C 159.35 241.268 156.05 230.968 145.45 217.968 C 140.65 212.068 130.25 202.668 128.45 202.668 C 126.85 202.668 122.35 218.868 121.75 226.668 C 121.05 236.368 122.45 242.668 127.55 252.968 C 132.35 262.568 137.45 269.668 144.65 276.568 L 149.75 281.468 L 143.75 294.868 C 140.35 302.168 135.65 313.568 133.35 320.168 L 128.95 332.168 L 128.35 321.168 C 127.65 309.368 126.05 303.868 121.45 296.668 C 116.25 288.668 103.75 277.868 93.75 272.768 L 89.55 270.668 L 88.35 274.868 C 86.35 281.968 86.85 299.168 89.15 306.268 C 92.85 317.668 104.95 332.668 117.45 341.468 C 121.05 343.968 124.05 346.068 124.15 346.168 C 124.25 346.268 122.85 352.368 120.95 359.868 C 119.15 367.268 116.85 377.368 115.95 382.268 C 113.35 397.168 113.45 397.068 111.35 388.468 C 110.35 384.268 108.55 378.668 107.25 375.968 C 104.35 369.568 94.65 360.068 85.95 354.868 C 78.05 350.168 64.85 344.968 63.65 346.068 C 62.65 347.168 63.15 360.968 64.55 367.568 C 66.55 377.268 70.75 385.168 78.15 392.868 C 85.25 400.168 97.15 408.568 106.25 412.668 C 110.15 414.468 111.35 415.468 110.95 416.568 C 110.55 417.468 110.05 428.468 109.75 440.968 L 109.15 463.768 L 105.45 455.968 C 100.85 446.368 98.15 442.868 91.65 437.668 C 83.45 431.068 69.65 425.768 54.25 423.168 C 50.75 422.668 50.45 422.768 50.45 424.968 C 50.45 429.268 54.35 442.668 57.55 449.468 C 64.55 464.168 82.45 476.768 104.45 482.668 L 110.95 484.368 L 112.15 496.768 C 113.25 508.368 115.85 525.668 117.05 530.168 C 117.35 531.268 115.65 529.268 113.15 525.668 C 106.45 515.868 101.05 510.868 93.05 507.068 C 83.85 502.668 73.55 500.568 60.95 500.368 L 50.95 500.168 L 51.25 502.668 C 51.45 504.068 53.75 509.768 56.55 515.268 C 63.15 528.768 70.25 536.068 82.25 541.868 C 90.95 545.968 106.25 550.168 116.55 551.168 L 122.15 551.768 L 124.85 561.468 C 127.15 569.468 132.25 583.768 136.05 593.068 C 136.45 594.168 133.45 592.168 129.35 588.568 C 115.05 576.168 109.75 574.168 89.95 574.168 C 75.95 574.168 68.25 574.968 65.55 576.568 C 63.05 578.168 69.65 587.968 80.55 598.668 C 92.25 610.268 106.75 615.068 130.65 615.068 L 145.25 615.168 L 154.05 632.168 C 158.85 641.468 163.85 650.868 165.05 652.868 C 168.35 658.068 168.05 658.268 163.25 654.368 C 158.35 650.368 149.85 645.268 146.35 644.168 C 145.05 643.768 143.65 642.868 143.25 642.268 C 142.25 640.768 113.65 640.768 112.65 642.268 C 112.25 642.868 109.85 643.868 107.15 644.568 C 100.35 646.168 91.45 649.668 91.45 650.668 C 91.45 652.368 100.75 662.668 106.55 667.168 C 114.35 673.268 122.35 677.168 130.15 678.768 C 139.35 680.468 163.05 679.468 171.95 676.868 C 175.75 675.768 178.95 674.868 179.05 674.968 C 179.15 675.068 182.75 679.868 187.05 685.668 C 191.25 691.468 197.45 699.468 200.65 703.368 C 203.95 707.368 206.35 710.668 206.15 710.668 C 205.95 710.668 202.45 709.168 198.35 707.268 C 194.25 705.368 188.25 703.368 184.95 702.668 C 173.55 700.368 158.15 703.568 142.45 711.768 C 128.65 718.868 129.35 718.068 133.45 721.668 C 139.35 726.868 151.25 734.468 156.85 736.568 C 173.35 742.668 192.75 741.068 215.15 731.468 L 222.35 728.468 L 234.65 739.768 C 241.45 746.068 248.75 752.668 250.95 754.568 C 254.35 757.368 254.55 757.768 252.45 757.268 C 241.85 754.468 235.35 753.568 229.75 754.068 C 221.65 754.768 211.15 758.468 202.45 763.568 C 195.45 767.768 181.45 778.468 181.45 779.668 C 181.45 780.868 198.95 789.468 205.95 791.668 C 215.65 794.668 227.45 794.668 237.95 791.768 C 247.55 789.068 262.85 782.068 269.75 777.068 C 274.65 773.568 274.95 773.468 277.45 774.868 C 279.65 776.168 298.55 787.568 310.15 794.468 C 312.45 795.868 313.05 796.468 311.65 796.068 C 310.35 795.768 304.75 795.468 299.15 795.468 C 284.15 795.468 275.95 798.768 261.25 810.568 C 255.05 815.568 243.65 827.868 242.65 830.568 C 242.55 831.068 246.75 832.868 252.15 834.668 C 263.75 838.568 278.75 839.768 288.35 837.668 C 300.25 835.068 316.95 825.368 329.55 813.768 L 336.25 807.668 L 347.55 812.568 C 353.85 815.268 362.55 818.668 366.95 820.268 C 375.95 823.468 375.95 823.468 361.45 825.568 C 357.15 826.268 351.35 827.968 347.85 829.668 C 340.85 833.068 330.45 842.268 323.85 850.868 C 319.55 856.368 311.45 869.368 311.45 870.768 C 311.45 871.068 313.85 871.868 316.75 872.468 C 330.85 875.468 345.65 874.768 356.95 870.568 C 368.75 866.168 385.95 851.968 396.05 838.268 C 401.05 831.368 401.75 831.068 407.45 832.668 C 422.05 836.868 457.85 842.668 459.35 841.068 C 459.85 840.568 460.45 837.668 460.55 834.668 L 460.85 829.168 L 451.35 827.968 C 442.95 826.968 422.85 823.468 416.85 822.068 C 414.95 821.568 414.75 820.668 414.15 809.368 C 413.45 794.968 410.05 780.668 404.95 769.868 C 399.35 757.968 385.65 745.668 370.65 738.968 C 365.75 736.868 365.35 736.768 364.65 738.368 C 364.25 739.368 363.95 747.568 363.95 756.668 C 363.95 774.568 365.15 781.268 370.05 791.368 C 373.05 797.568 380.55 806.168 387.55 811.268 C 390.35 813.268 392.35 815.068 392.15 815.268 C 391.65 815.768 368.65 808.068 358.45 803.968 C 349.85 800.468 350.45 802.268 352.45 784.968 C 353.45 776.368 353.55 771.668 352.65 763.968 C 350.55 745.568 345.65 734.968 333.95 723.468 C 327.75 717.368 317.85 709.968 316.95 710.868 C 316.65 711.168 315.25 715.868 313.75 721.268 C 310.25 734.368 309.85 755.868 312.85 764.668 C 315.15 771.368 319.65 778.568 325.85 785.568 C 328.35 788.368 330.45 790.968 330.45 791.268 C 330.45 791.868 318.35 785.468 301.65 775.868 C 292.75 770.768 290.45 769.068 291.05 767.768 C 293.55 761.968 297.55 747.368 298.55 740.568 C 300.15 729.568 299.35 714.568 296.65 707.468 C 293.65 699.168 287.95 690.268 280.85 682.768 C 276.25 677.968 274.25 676.468 273.45 677.268 C 271.85 678.868 264.85 695.568 262.95 702.268 C 260.35 711.868 259.85 726.168 261.95 733.168 C 263.85 739.868 267.35 747.168 271.65 753.368 C 273.25 755.768 274.15 757.668 273.75 757.668 C 272.55 757.668 252.85 741.768 244.55 733.968 L 237.05 727.068 L 239.35 723.868 C 247.05 713.068 254.45 690.068 254.45 676.968 C 254.45 667.668 253.15 662.268 248.55 652.168 C 246.45 647.768 244.65 643.668 244.55 643.168 C 244.05 641.668 238.15 633.668 237.55 633.668 C 236.75 633.668 231.55 641.068 228.65 646.168 C 220.65 660.468 217.25 669.268 216.05 679.768 C 215.15 686.668 217.15 696.768 221.35 706.868 L 224.35 714.168 L 218.35 707.668 C 211.85 700.568 196.85 682.068 194.55 678.268 C 193.15 675.968 193.35 675.568 197.55 670.768 C 200.05 667.968 204.25 662.068 206.95 657.668 C 217.55 640.068 220.75 623.168 216.55 606.768 C 213.95 596.368 210.05 587.668 208.05 587.668 C 206.25 587.668 196.65 597.268 191.55 604.168 C 179.65 620.268 176.65 632.668 179.95 651.168 C 180.75 655.568 181.45 659.368 181.45 659.668 C 181.45 659.968 179.25 656.568 176.45 652.168 C 173.75 647.768 171.45 643.868 171.45 643.568 C 171.45 643.168 168.55 637.768 164.95 631.568 C 161.35 625.268 158.45 619.668 158.45 619.068 C 158.45 618.468 160.65 616.268 163.25 614.068 C 174.85 604.568 188.25 586.668 190.95 577.168 C 193.35 568.368 193.75 559.768 192.05 549.968 C 191.15 544.968 190.05 539.668 189.45 538.268 L 188.45 535.568 L 182.25 539.768 C 174.15 545.268 162.25 556.668 158.05 563.168 C 152.35 571.868 151.15 576.068 150.55 589.468 L 149.95 601.768 L 145.15 590.568 C 142.45 584.368 138.65 574.568 136.75 568.768 C 133.45 558.968 133.35 558.168 134.95 557.168 C 145.85 550.668 155.25 543.568 161.65 536.868 C 173.95 523.968 178.45 512.668 178.45 494.168 C 178.45 482.568 177.95 481.868 172.25 484.068 C 162.35 488.068 149.75 496.368 143.35 503.268 C 135.45 511.868 133.15 516.968 130.55 532.168 L 128.85 542.168 L 127.05 534.668 C 124.65 524.268 120.45 499.168 120.45 495.368 C 120.45 492.368 120.85 492.068 126.25 490.268 C 138.45 486.268 152.75 477.468 161.25 468.768 C 165.85 463.968 170.65 455.268 172.85 447.668 C 174.35 442.568 176.65 427.568 176.05 426.968 C 175.45 426.368 160.35 430.668 154.35 433.168 C 145.75 436.768 135.25 443.868 131.45 448.668 C 127.95 453.068 122.35 464.768 120.35 472.168 L 118.95 477.168 L 118.35 471.168 C 117.45 463.568 117.25 428.868 118.05 426.068 C 118.55 424.268 119.65 423.868 124.65 423.268 C 137.25 421.968 157.15 413.468 165.85 405.668 C 172.95 399.368 181.05 384.468 182.95 374.368 L 183.65 370.668 L 178.35 370.668 C 165.75 370.668 146.55 376.668 137.95 383.168 C 133.65 386.568 128.95 392.768 123.45 402.668 L 119.35 410.168 L 119.95 404.668 C 121.05 395.268 123.35 381.668 126.05 369.068 L 128.65 356.968 L 139.85 356.368 C 159.65 355.168 175.45 349.968 184.35 341.568 C 193.25 333.068 202.75 317.568 200.55 315.368 C 198.95 313.768 174.35 313.868 167.65 315.468 C 155.55 318.268 146.55 324.468 138.45 335.568 C 136.05 338.868 133.85 341.468 133.65 341.168 C 132.75 340.368 148.55 297.168 151.35 292.868 C 152.05 291.668 153.15 291.668 158.05 292.768 C 161.35 293.468 169.35 294.068 175.95 294.068 C 194.45 294.068 204.45 290.668 215.75 280.568 C 220.85 276.068 229.25 265.168 228.35 264.268 C 227.05 262.968 210.75 259.568 203.45 259.068 C 187.45 257.868 177.55 261.368 165.55 272.368 C 161.65 275.968 158.45 278.468 158.45 277.968 C 158.45 276.168 181.65 235.668 184.95 231.868 C 185.05 231.768 187.25 232.568 189.85 233.668 C 201.25 238.468 219.45 241.268 230.25 239.668 C 240.85 238.168 254.95 230.268 261.95 221.868 L 264.65 218.668 L 256.95 215.068 C 239.45 206.968 222.95 205.568 211.05 210.968 C 207.85 212.468 202.65 215.368 199.55 217.468 C 196.45 219.568 193.35 221.668 192.55 222.168 C 188.95 224.268 216.55 190.568 224.75 182.768 L 228.25 179.468 L 235.15 183.568 C 244.05 188.868 253.55 192.368 263.85 194.168 C 273.65 195.868 281.15 194.968 290.55 191.268 C 296.45 188.768 307.45 182.068 307.45 180.768 C 307.45 179.268 290.85 169.168 283.75 166.468 C 270.75 161.468 259.75 161.768 246.55 167.768 C 235.25 172.968 234.85 173.068 236.45 171.168 C 238.45 168.768 257.85 152.668 269.75 143.468 L 279.85 135.868 L 285.05 140.468 C 291.45 146.268 301.65 152.368 310.95 156.168 C 316.95 158.668 319.25 159.068 326.95 159.068 C 336.25 158.968 345.25 156.868 353.05 152.868 L 356.75 150.968 L 350.35 144.668 C 342.95 137.268 334.55 131.668 326.55 128.568 C 319.25 125.668 308.05 125.668 297.05 128.568 C 292.65 129.768 288.95 130.468 288.75 130.268 C 288.55 130.068 294.35 126.268 301.65 121.868 C 308.95 117.368 315.65 113.168 316.45 112.368 C 318.65 110.368 335.25 101.668 336.65 101.768 C 337.35 101.768 339.95 104.468 342.45 107.868 C 348.45 115.968 352.55 119.768 361.25 125.668 C 370.45 131.868 376.55 133.768 387.45 133.668 C 395.15 133.668 406.65 131.768 408.15 130.368 C 409.05 129.468 400.15 117.568 393.25 110.468 C 389.35 106.468 384.75 102.968 380.95 101.068 C 375.05 98.268 374.55 98.168 359.25 98.168 C 341.25 98.168 341.05 98.568 362.15 90.268 L 376.35 84.668 L 383.85 87.168 C 397.45 91.768 408.15 90.168 421.25 81.768 C 427.55 77.668 435.45 70.968 435.45 69.668 C 435.45 68.068 417.75 64.268 409.95 64.168 C 403.15 64.168 401.05 64.568 396.05 67.068 C 392.75 68.668 386.95 73.068 382.95 76.768 C 375.55 83.768 375.15 84.068 351.95 92.068 C 350.75 92.468 351.45 91.568 353.45 89.968 C 371.15 75.768 377.45 64.468 377.45 46.968 C 377.45 40.868 375.65 27.468 374.65 26.468 C 374.25 26.168 372.65 26.568 370.95 27.368 Z " fill="rgb(255,255,255)"/><path d=" M 623.55 31.368 C 622.05 38.968 622.15 55.068 623.85 61.168 C 624.55 63.868 626.05 67.968 627.25 70.268 C 629.55 74.768 638.55 84.168 645.15 88.868 C 647.45 90.568 649.35 92.168 649.15 92.268 C 649.05 92.468 643.35 90.568 636.55 88.068 C 625.25 83.968 623.55 83.068 617.35 77.268 C 613.65 73.868 607.75 69.468 604.25 67.568 C 598.55 64.468 597.15 64.168 589.95 64.168 C 582.05 64.168 564.45 67.968 564.45 69.668 C 564.45 71.768 576.55 81.168 584.15 84.868 C 592.55 89.068 593.05 89.168 602.35 89.068 C 609.75 89.068 613.15 88.568 617.25 86.868 L 622.55 84.668 L 632.25 88.268 C 637.55 90.268 645.15 93.368 649.05 95.068 L 656.15 98.168 L 640.05 98.168 C 624.25 98.168 623.85 98.268 618.45 101.068 C 608.85 106.068 603.35 111.768 592.65 127.268 L 590.55 130.368 L 594.65 131.668 C 600.95 133.468 613.05 134.368 619.65 133.468 C 631.05 131.968 645.75 122.268 655.55 109.968 C 658.95 105.668 662.05 102.068 662.45 101.868 C 663.45 101.468 680.75 110.068 682.55 111.868 C 683.35 112.568 690.15 116.968 697.65 121.668 C 705.25 126.268 711.25 130.168 711.05 130.368 C 710.85 130.568 706.95 129.768 702.35 128.568 C 681.45 123.168 667.45 127.268 649.75 144.068 C 645.35 148.268 643.25 150.868 643.95 151.468 C 646.15 153.568 658.95 157.868 666.35 158.868 C 672.95 159.868 675.25 159.768 681.05 158.368 C 690.45 156.068 704.65 148.768 712.45 142.168 C 715.95 139.168 719.35 136.668 719.95 136.668 C 722.05 136.668 765.05 171.468 764.05 172.368 C 763.95 172.568 760.45 171.168 756.35 169.268 C 747.75 165.268 738.35 162.668 732.75 162.668 C 723.45 162.668 708.45 168.568 697.15 176.668 L 691.35 180.868 L 695.55 183.868 C 706.75 191.968 722.05 196.368 732.85 194.668 C 744.85 192.768 759.55 187.168 767.65 181.568 C 769.05 180.468 770.75 179.668 771.25 179.668 C 773.25 179.668 800.25 211.268 806.05 220.168 L 807.95 223.168 L 802.95 219.568 C 797.35 215.368 787.85 210.468 782.05 208.668 C 776.55 206.868 761.65 207.968 753.45 210.668 C 749.85 211.868 744.15 214.268 740.65 215.968 L 734.45 219.068 L 737.15 221.968 C 745.65 230.868 758.35 237.968 768.65 239.668 C 780.05 241.468 799.35 238.268 812.55 232.268 C 813.85 231.768 815.35 233.368 819.45 239.768 C 826.15 250.168 833.65 263.268 838.15 272.068 L 841.65 278.968 L 834.85 272.868 C 822.45 261.668 812.05 257.868 796.45 258.968 C 788.85 259.568 772.95 262.868 771.65 264.168 C 770.45 265.268 774.35 270.668 781.95 278.268 C 790.45 286.868 796.85 290.668 806.65 292.868 C 813.55 294.468 834.45 294.468 841.45 292.868 C 846.35 291.668 847.05 291.768 848.15 293.368 C 850.75 296.768 866.45 339.068 866.45 342.368 C 866.45 342.668 864.45 340.268 862.05 337.068 C 851.85 323.368 843.25 317.768 828.15 314.968 C 819.55 313.468 800.85 313.868 799.15 315.568 C 796.75 317.968 808.55 336.368 816.65 342.968 C 826.45 350.968 841.85 355.668 859.15 355.968 L 870.35 356.168 L 872.85 366.668 C 875.05 376.168 878.35 394.968 879.85 406.668 C 880.45 411.068 880.35 410.968 875.75 402.268 C 866.95 385.868 856.65 377.568 839.45 373.268 C 832.95 371.568 815.45 369.868 815.45 370.868 C 815.45 371.168 816.45 374.568 817.55 378.268 C 823.75 398.268 834.95 410.168 855.35 418.168 C 862.25 420.868 873.95 423.668 878.25 423.668 L 881.15 423.668 L 881.85 435.168 C 882.65 447.068 881.65 474.668 880.55 474.668 C 880.15 474.668 878.85 471.368 877.55 467.368 C 872.55 451.668 864.55 442.668 849.05 435.168 C 840.65 431.068 824.65 426.168 823.55 427.268 C 822.65 428.168 825.45 444.168 827.55 450.468 C 831.75 463.068 840.65 473.168 855.15 481.968 C 860.75 485.368 875.15 491.668 877.35 491.668 C 879.45 491.668 879.45 493.968 877.55 506.868 C 874.95 524.668 871.35 541.168 870.45 539.468 C 870.05 538.768 869.45 535.668 869.05 532.568 C 867.35 517.268 860.95 506.068 848.15 496.368 C 841.55 491.268 825.65 482.668 822.85 482.668 C 821.15 482.668 820.35 493.268 821.45 503.068 C 823.15 517.868 827.55 526.668 838.75 537.968 C 845.95 545.268 854.25 551.568 862.15 555.568 L 866.35 557.668 L 861.85 570.868 C 859.35 578.168 856.15 586.568 854.75 589.568 C 853.45 592.668 851.65 596.468 850.95 598.168 C 849.65 600.968 849.65 600.668 849.55 593.068 C 849.45 581.968 848.05 575.368 844.15 567.668 C 840.25 559.768 827.85 546.868 817.95 540.268 C 809.85 534.968 810.35 534.568 807.85 547.468 C 804.95 562.868 807.35 580.368 813.55 588.068 C 814.05 588.668 817.05 592.768 820.35 597.268 C 826.15 604.968 831.25 610.268 838.35 615.768 L 841.75 618.468 L 837.45 626.268 C 835.05 630.668 831.05 637.968 828.45 642.668 C 824.35 650.368 818.55 659.668 817.95 659.668 C 817.85 659.668 818.35 657.068 819.05 653.868 C 819.85 650.768 820.45 644.068 820.55 639.168 C 820.65 627.768 818.25 619.968 811.65 609.568 C 805.85 600.568 793.95 587.668 791.45 587.668 C 787.45 587.668 781.15 608.368 781.15 621.668 C 781.25 636.968 789.35 655.968 802.45 671.568 L 806.65 676.568 L 801.35 683.368 C 798.45 687.068 792.65 694.168 788.45 698.968 C 773.35 716.768 773.95 716.268 777.95 707.368 C 787.25 686.268 785.15 670.068 769.45 644.168 C 762.75 633.168 762.25 632.768 759.15 636.868 C 752.75 645.368 746.15 661.968 744.95 672.268 C 743.65 684.168 749.25 704.868 757.85 719.968 L 762.15 727.568 L 754.55 734.468 C 746.85 741.468 733.55 752.368 727.75 756.468 C 724.65 758.668 724.65 758.568 729.55 750.568 C 735.45 740.668 738.15 733.768 738.95 726.068 C 739.75 719.168 738.15 707.268 735.35 698.368 C 732.35 689.268 726.35 676.668 724.85 676.668 C 723.25 676.668 713.55 687.768 709.25 694.668 C 701.15 707.668 698.85 718.068 700.45 734.968 C 701.45 744.768 704.65 758.368 707.85 766.168 L 709.25 769.468 L 695.15 777.468 C 687.35 781.868 678.05 786.868 674.55 788.668 L 668.05 791.868 L 672.65 786.768 C 686.55 771.368 691.05 757.368 688.55 737.068 C 687.45 727.568 683.85 712.768 682.45 711.268 C 681.15 709.968 672.75 716.168 664.95 724.168 C 651.75 737.668 647.65 747.968 646.75 770.268 C 646.25 781.868 647.15 792.368 649.05 798.768 C 649.55 800.668 642.55 803.968 623.45 810.468 C 605.65 816.468 605.15 816.568 611.45 811.568 C 630.25 796.768 635.75 784.368 635.65 757.168 C 635.65 748.868 635.25 740.968 634.85 739.468 L 633.95 736.668 L 627.75 739.568 C 614.45 745.868 600.25 758.168 595.45 767.668 C 589.35 779.668 585.45 796.968 585.45 812.268 C 585.45 817.468 585.15 821.668 584.85 821.668 C 584.55 821.668 579.65 822.568 574.15 823.768 C 568.55 824.868 558.35 826.568 551.45 827.568 L 538.95 829.268 L 539.25 835.268 C 539.45 838.468 539.85 841.368 540.05 841.568 C 540.95 842.568 561.55 839.468 577.45 835.968 C 586.55 833.968 595.05 832.168 596.45 832.068 C 598.55 831.768 599.75 832.768 603.95 838.768 C 613.35 851.968 631.15 866.568 642.85 870.768 C 654.65 874.868 667.25 875.468 682.75 872.468 L 688.45 871.368 L 684.95 864.968 C 672.75 842.668 655.55 828.168 638.35 825.568 C 634.25 824.968 629.35 824.268 627.45 823.968 C 625.55 823.668 624.65 823.168 625.45 822.968 C 630.25 821.368 650.95 813.068 656.65 810.468 L 663.45 807.368 L 670.55 814.168 C 681.35 824.368 696.55 833.568 708.35 837.068 C 715.15 839.068 729.55 839.168 738.45 837.268 C 747.25 835.368 756.45 831.768 756.45 830.268 C 756.45 828.268 742.05 813.268 735.15 808.068 C 721.85 798.068 709.35 794.168 694.45 795.668 C 690.35 796.068 686.85 796.268 686.65 796.168 C 686.55 796.068 691.05 793.268 696.65 790.168 C 702.35 786.968 710.75 781.868 715.45 778.868 C 722.95 774.068 724.05 773.568 725.95 774.768 C 741.15 784.468 747.55 787.468 760.35 791.268 C 770.85 794.368 781.95 794.768 791.45 792.268 C 797.85 790.668 811.95 784.268 815.95 781.368 C 817.95 779.868 817.95 779.768 815.45 777.168 C 809.45 770.668 793.95 761.068 783.65 757.268 C 773.65 753.668 766.35 753.068 756.55 755.068 C 752.15 755.968 747.65 756.968 746.75 757.268 C 745.75 757.668 747.65 755.468 750.95 752.568 C 754.25 749.668 761.25 743.068 766.55 737.968 C 771.75 732.868 776.65 728.668 777.25 728.668 C 777.95 728.668 780.75 729.768 783.45 731.168 C 794.65 736.868 818.35 741.568 828.75 740.168 C 840.25 738.568 854.55 731.668 864.25 722.968 C 868.75 718.868 868.85 718.668 867.05 717.268 C 863.15 714.168 849.65 707.768 841.85 705.368 C 825.35 700.168 814.05 700.868 799.25 707.968 C 795.55 709.768 792.95 710.768 793.35 710.168 C 793.85 709.668 797.05 705.568 800.55 701.168 C 804.15 696.768 810.05 689.068 813.75 684.068 L 820.55 674.868 L 827.75 676.868 C 836.95 679.368 861.35 680.468 869.75 678.668 C 880.15 676.568 889.05 671.268 899.25 661.068 C 904.25 655.968 908.45 651.368 908.45 650.868 C 908.45 649.868 897.25 645.368 891.45 644.168 C 889.55 643.768 887.65 642.868 887.25 642.268 C 886.35 640.768 856.65 640.768 855.65 642.168 C 855.25 642.768 852.95 644.068 850.45 645.168 C 846.75 646.868 838.85 652.068 832.65 656.968 C 831.95 657.568 833.25 654.668 835.65 650.568 C 838.05 646.468 843.15 636.868 846.95 629.168 L 853.95 615.168 L 868.95 615.068 C 881.75 614.968 885.35 614.568 893.85 612.368 C 904.05 609.668 910.45 606.468 916.45 601.368 C 921.45 597.068 931.05 585.268 933.45 580.668 C 935.75 576.168 936.15 576.468 925.05 574.568 C 916.35 573.068 896.75 573.968 889.85 576.068 C 883.45 578.068 873.55 584.568 867.25 590.868 C 864.55 593.468 862.45 595.368 862.45 595.068 C 862.45 594.868 863.35 592.768 864.45 590.368 C 866.75 585.268 871.35 572.368 874.95 560.468 L 877.55 551.768 L 881.95 551.268 C 884.45 550.868 888.55 550.368 891.25 550.068 C 905.85 548.268 924.65 539.468 932.95 530.568 C 938.55 524.468 946.85 509.268 948.15 502.768 L 948.75 499.368 L 937.75 500.068 C 912.25 501.568 897.55 508.668 887.25 524.168 C 884.95 527.768 882.95 530.468 882.85 530.368 C 882.75 530.268 883.65 523.168 884.95 514.668 C 886.25 506.168 887.65 495.868 888.15 491.768 L 888.95 484.468 L 897.25 482.068 C 913.05 477.468 929.45 467.568 936.45 458.268 C 942.55 450.268 946.55 439.768 948.85 426.468 L 949.55 422.668 L 944.75 423.368 C 936.65 424.368 923.35 428.568 915.95 432.468 C 905.95 437.668 899.55 444.468 894.25 455.368 L 889.95 464.368 L 889.85 448.768 C 889.85 440.168 889.45 429.068 889.05 424.068 L 888.35 414.868 L 894.85 411.868 C 910.35 404.568 925.35 391.368 930.45 380.468 C 934.25 372.368 936.45 362.368 936.45 352.768 L 936.45 345.368 L 933.35 346.068 C 929.05 346.868 914.55 353.868 908.75 357.768 C 897.65 365.468 891.85 373.868 888.35 387.468 C 887.35 391.568 886.35 395.168 886.15 395.268 C 885.95 395.468 885.25 392.168 884.55 387.868 C 883.85 383.668 881.55 372.768 879.35 363.768 C 877.25 354.768 875.45 347.068 875.45 346.668 C 875.45 346.268 878.05 344.268 881.15 342.168 C 888.25 337.468 898.95 326.668 903.95 319.168 C 909.85 310.268 911.65 304.568 912.15 293.168 C 912.65 284.568 911.45 272.268 910.05 270.868 C 908.95 269.868 892.85 280.568 886.95 286.268 C 881.75 291.168 876.55 298.168 874.55 302.768 C 872.55 307.268 870.45 319.568 870.45 326.968 C 870.45 330.668 869.75 329.568 865.05 317.168 C 862.15 309.468 857.65 298.568 855.05 292.868 C 852.55 287.268 850.45 282.368 850.45 282.068 C 850.45 281.768 853.45 278.168 857.25 274.168 C 864.85 265.968 872.35 254.068 875.55 245.168 C 879.45 234.668 878.15 217.968 872.65 205.468 L 870.95 201.568 L 863.15 208.768 C 844.35 226.068 838.95 240.368 842.85 262.368 C 843.55 266.368 843.95 269.668 843.85 269.668 C 843.75 269.668 841.15 265.068 837.95 259.468 C 834.85 253.768 828.35 243.368 823.55 236.168 C 818.85 229.068 814.85 222.868 814.65 222.368 C 814.45 221.968 815.85 219.568 817.75 216.868 C 819.65 214.268 822.85 208.968 824.75 205.168 C 835.15 184.368 835.65 168.868 826.35 150.668 C 821.15 140.268 821.55 140.368 814.75 149.068 C 803.85 163.068 798.65 176.768 799.85 188.368 C 800.25 191.768 801.65 197.868 802.95 201.868 C 804.25 205.768 805.25 209.168 805.15 209.368 C 804.95 209.468 800.95 204.968 796.15 199.368 C 791.45 193.768 783.25 184.968 778.05 179.768 L 768.65 170.468 L 772.05 163.268 C 779.35 147.968 781.85 128.268 778.05 116.668 C 775.35 108.668 770.95 100.668 766.05 95.168 L 761.75 90.268 L 757.85 97.168 C 752.05 107.668 749.35 116.668 748.75 127.768 C 748.15 138.568 749.45 143.568 756.15 155.668 L 759.75 162.168 L 752.85 156.668 C 749.05 153.668 743.95 149.668 741.45 147.668 C 736.85 143.868 719.25 131.168 716.75 129.868 C 715.65 129.168 715.75 127.768 717.45 121.168 C 720.05 111.268 721.05 94.268 719.55 86.168 C 717.75 76.268 713.05 68.168 704.05 59.168 L 696.05 51.168 L 693.95 56.168 C 688.75 67.968 686.95 86.168 689.95 96.268 C 690.75 98.968 692.95 103.568 694.95 106.468 C 696.85 109.468 698.45 112.168 698.45 112.668 C 698.45 113.068 699.15 113.968 699.95 114.668 C 700.85 115.368 702.95 117.868 704.75 120.068 C 707.65 123.868 707.75 124.068 705.45 122.568 C 704.05 121.768 700.05 119.268 696.45 117.168 C 692.85 114.968 689.35 112.668 688.65 111.968 C 687.85 111.268 680.35 107.268 671.75 103.068 C 657.05 95.868 656.35 95.368 656.95 92.968 C 657.25 91.668 657.55 85.868 657.55 80.268 C 657.65 70.268 655.05 55.668 652.35 50.368 C 649.75 45.368 642.95 37.568 638.15 33.968 C 633.55 30.468 625.85 25.668 625.05 25.668 C 624.85 25.668 624.25 28.268 623.55 31.368 Z " fill="rgb(255,255,255)"/><path d=" M 462.55 195.568 C 461.45 196.268 461.35 197.868 461.85 202.268 C 462.25 205.468 462.75 209.068 463.05 210.168 C 463.55 212.168 462.95 212.368 455.25 213.568 C 446.25 214.968 443.45 216.068 443.45 218.068 C 443.45 219.868 433.55 229.068 424.45 235.868 C 406.65 249.068 398.75 260.768 390.15 286.768 C 387.75 294.168 383.65 304.468 381.15 309.668 C 373.75 325.168 373.55 326.168 377.45 335.568 L 380.75 343.568 L 376.85 348.168 C 370.35 355.868 367.95 360.068 362.85 372.768 C 360.25 379.568 355.45 390.168 352.25 396.468 C 345.65 409.468 344.75 415.368 348.35 421.268 C 351.65 426.668 365.15 430.468 370.55 427.668 C 373.65 425.968 375.15 430.368 373.75 436.968 C 372.55 442.968 373.05 444.068 378.05 445.668 C 381.15 446.668 381.25 446.968 379.85 448.368 C 379.05 449.268 377.65 451.068 376.75 452.368 C 375.25 454.668 375.35 454.968 378.65 459.968 C 384.35 468.268 384.75 469.468 384.05 475.068 C 381.95 491.868 382.05 493.068 388.05 499.068 C 393.55 504.568 399.95 506.868 411.45 507.668 C 433.25 509.268 441.95 516.368 443.25 533.868 C 443.65 539.968 443.45 541.068 441.05 544.668 C 438.25 548.868 427.55 556.568 415.45 563.168 C 408.75 566.768 407.95 567.468 407.65 570.368 C 407.35 572.868 406.35 574.368 402.95 576.768 C 400.55 578.468 398.35 580.468 398.05 581.268 C 397.75 581.968 395.35 583.268 392.75 584.068 C 390.15 584.868 385.45 586.468 382.45 587.668 C 379.45 588.868 374.05 590.968 370.45 592.368 C 362.65 595.268 360.95 596.768 357.95 602.768 C 356.65 605.268 353.65 609.668 351.25 612.568 C 344.55 620.868 343.65 622.568 340.55 632.168 C 334.25 651.568 334.45 657.968 341.55 666.068 C 346.35 671.468 352.55 674.168 364.95 676.268 C 373.15 677.668 376.85 677.768 390.85 676.868 C 409.65 675.568 413.75 674.368 425.95 666.668 C 430.25 663.968 434.25 661.668 434.65 661.668 C 436.35 661.668 435.25 664.868 431.45 670.868 C 426.65 678.468 426.35 681.868 430.35 685.568 C 434.95 689.868 442.05 691.468 459.95 692.168 C 477.65 692.868 498.25 695.968 516.35 700.668 C 525.55 703.068 528.05 703.468 529.05 702.468 C 529.65 701.768 537.35 686.968 546.05 669.668 C 562.25 637.468 570.45 622.868 574.65 618.968 C 577.65 616.168 599.55 603.668 610.95 598.268 C 624.65 591.668 634.75 588.368 660.45 582.068 C 688.35 575.268 699.85 571.568 700.25 569.468 C 700.45 568.568 693.75 561.468 684.25 552.468 C 661.85 531.168 657.85 527.768 642.75 517.568 C 635.55 512.668 628.75 507.468 627.65 505.968 C 626.55 504.368 623.65 499.068 621.15 494.068 C 617.45 486.768 615.95 484.668 613.35 483.668 C 609.35 481.968 608.25 479.368 604.95 463.268 C 600.05 440.168 602.25 430.868 617.35 410.668 C 625.05 400.268 627.85 393.868 632.45 376.068 C 642.55 337.168 636.45 290.568 616.15 251.168 C 610.95 241.168 594.85 224.368 586.95 220.768 C 573.55 214.568 543.85 209.668 516.45 208.968 L 496.95 208.468 L 492.25 204.568 C 484.55 198.168 478.05 195.268 470.55 194.868 C 466.95 194.768 463.35 194.968 462.55 195.568 Z  M 478.55 204.268 C 489.15 209.568 499.85 224.068 501.15 234.568 L 501.75 239.568 L 495.95 241.268 C 487.55 243.668 476.15 242.868 470.35 239.468 C 467.95 238.068 465.15 235.968 464.15 234.868 C 462.25 232.868 462.35 232.768 466.65 231.668 C 470.85 230.468 482.25 230.768 487.45 232.168 C 489.15 232.668 488.25 231.768 484.95 229.368 C 477.35 224.068 472.45 218.868 469.85 213.268 C 467.65 208.468 466.65 201.768 468.05 200.368 C 468.75 199.668 471.65 200.668 478.55 204.268 Z  M 521.55 222.268 C 528.85 226.668 539.45 237.968 542.85 244.768 C 545.65 250.568 547.95 260.668 546.75 261.768 C 544.25 263.968 534.15 266.068 525.95 266.168 C 517.75 266.168 516.25 265.868 510.35 262.968 C 506.85 261.168 502.85 258.668 501.55 257.268 L 499.25 254.868 L 501.65 253.568 C 506.65 250.868 521.45 251.268 531.95 254.368 C 533.05 254.668 531.55 253.068 528.75 250.768 C 520.05 243.968 511.95 232.268 510.05 224.168 C 509.65 222.468 509.15 220.368 508.75 219.268 C 508.25 217.568 508.65 217.468 512.05 218.168 C 514.25 218.568 518.45 220.368 521.55 222.268 Z  M 456.75 238.968 C 468.45 250.868 481.75 254.068 498.25 249.168 L 502.55 247.868 L 493.75 257.068 C 484.25 266.968 482.05 270.668 478.05 283.268 C 474.95 292.868 474.85 295.168 477.15 299.168 C 478.55 301.568 478.95 304.668 478.95 314.168 C 478.95 320.768 478.65 327.368 478.15 328.868 C 477.45 331.668 477.25 331.668 469.55 331.668 C 461.25 331.668 459.45 332.568 457.95 337.468 C 456.55 342.068 459.15 345.368 468.35 350.568 C 473.05 353.268 479.55 357.968 482.75 360.868 C 487.55 365.468 488.45 366.768 488.45 369.668 C 488.45 375.568 486.65 380.168 482.45 384.968 C 476.35 391.768 476.75 394.368 485.95 408.568 C 492.65 418.968 494.65 424.768 494.65 434.168 C 494.65 447.768 489.75 459.468 480.35 468.368 C 473.45 474.968 469.75 477.468 457.35 483.668 C 443.25 490.868 433.75 493.068 417.95 493.168 C 408.35 493.168 406.35 492.868 402.15 490.768 C 395.65 487.668 393.25 483.668 393.75 477.368 C 394.25 471.868 396.95 468.368 402.15 466.468 C 406.85 464.768 406.25 463.268 400.25 461.368 C 392.85 458.968 389.95 456.568 391.25 453.968 C 391.85 452.868 392.05 451.068 391.75 449.868 C 390.95 446.468 393.75 446.168 405.35 448.068 C 417.25 450.068 420.55 449.668 423.55 445.868 L 425.55 443.268 L 420.95 438.968 C 417.05 435.368 415.65 434.668 412.35 434.668 L 408.35 434.668 L 409.95 437.768 C 411.55 440.668 411.45 440.868 409.75 440.368 C 399.35 437.468 392.65 437.168 384.15 439.268 L 381.35 439.968 L 382.05 434.568 C 382.45 431.568 383.85 427.468 385.15 425.368 C 387.15 422.268 388.05 421.668 390.95 421.668 C 395.25 421.668 397.95 419.168 399.55 413.868 C 401.15 408.268 400.05 402.868 396.85 401.468 C 395.45 400.768 393.75 399.168 393.05 397.868 L 391.85 395.468 L 389.15 399.068 C 386.85 401.968 386.65 402.968 387.45 405.168 C 388.65 408.168 386.65 412.968 383.55 414.568 C 377.15 418.068 364.45 418.068 360.25 414.668 C 357.25 412.268 357.35 406.968 360.55 402.068 C 361.95 399.868 364.95 393.168 367.25 387.168 C 373.25 371.368 377.75 362.868 383.05 357.168 C 388.75 350.968 391.45 346.868 391.45 343.968 C 391.45 342.768 390.25 338.568 388.85 334.568 C 385.45 325.068 385.95 321.168 392.25 308.368 C 395.05 302.768 398.75 293.668 400.55 288.168 C 404.45 275.868 407.05 270.568 414.65 259.468 C 423.05 247.168 428.95 241.568 438.55 236.768 C 443.05 234.468 447.55 232.668 448.65 232.668 C 449.75 232.668 453.35 235.468 456.75 238.968 Z  M 563.15 245.268 C 575.65 251.268 583.45 261.368 583.45 271.568 C 583.45 277.768 582.35 278.468 576.25 276.268 C 566.75 272.968 559.35 266.468 553.85 256.668 C 551.55 252.768 548.45 244.068 548.45 241.868 C 548.45 239.768 554.55 241.168 563.15 245.268 Z  M 601.25 272.168 C 608.95 277.968 610.95 282.668 610.65 294.668 C 610.55 299.868 610.05 304.468 609.45 305.068 C 607.95 306.568 599.45 298.868 595.65 292.568 C 591.45 285.668 589.45 279.068 588.75 269.668 L 588.15 262.268 L 592.05 265.268 C 594.15 266.868 598.35 270.068 601.25 272.168 Z  M 566.55 276.768 C 573.45 280.068 582.45 287.068 581.25 288.168 C 580.95 288.468 577.85 289.168 574.45 289.768 C 567.05 290.968 557.45 289.768 549.05 286.668 C 542.95 284.368 530.95 276.868 531.85 275.968 C 533.55 274.168 542.85 272.768 550.55 272.968 C 557.85 273.268 560.05 273.768 566.55 276.768 Z  M 628.75 300.668 C 630.95 306.768 631.55 322.968 629.65 324.868 C 627.75 326.768 622.35 322.568 619.05 316.668 C 616.05 311.368 615.95 310.768 615.95 299.168 C 615.95 291.168 616.45 286.068 617.35 283.868 L 618.75 280.568 L 622.75 287.868 C 624.95 291.868 627.65 297.568 628.75 300.668 Z  M 591.15 299.768 C 594.45 300.968 599.45 305.468 599.45 307.268 C 599.45 309.168 593.35 311.168 587.45 311.068 C 580.65 310.868 571.45 307.468 566.65 303.268 L 563.05 300.168 L 567.05 299.568 C 573.75 298.468 588.15 298.668 591.15 299.768 Z  M 619.95 324.568 C 623.25 326.368 626.95 332.568 625.55 333.968 C 625.05 334.468 621.05 335.068 616.65 335.368 C 609.65 335.868 608.05 335.668 603.85 333.568 C 599.05 331.268 591.45 325.168 591.45 323.568 C 591.45 321.168 615.45 321.968 619.95 324.568 Z  M 565.45 348.768 C 568.15 351.068 570.15 353.268 569.95 353.668 C 569.65 354.168 567.35 353.868 564.75 353.068 C 557.35 350.868 554.55 351.268 548.05 355.668 C 542.75 359.268 536.45 361.068 536.45 358.868 C 536.45 357.668 546.65 348.068 550.45 345.668 C 555.25 342.768 559.25 343.568 565.45 348.768 Z  M 582.05 360.768 C 582.45 361.468 582.95 364.868 583.15 368.568 C 583.55 373.668 583.15 376.668 581.45 381.568 C 577.25 394.068 570.05 401.568 554.65 409.668 C 549.25 412.368 543.15 416.068 540.85 417.768 C 535.25 421.868 526.75 422.968 523.55 419.768 C 521.15 417.368 520.75 412.068 522.75 409.268 C 523.75 407.968 524.55 407.768 526.55 408.468 C 528.25 409.168 529.95 409.068 532.15 408.168 C 536.55 406.268 544.45 398.868 544.45 396.568 C 544.45 394.568 542.95 394.068 541.95 395.668 C 540.95 397.268 537.75 396.868 537.05 395.068 C 536.05 392.468 537.15 390.368 541.45 387.268 C 543.65 385.668 545.75 383.368 546.05 382.268 C 546.85 379.568 550.45 375.668 552.05 375.668 C 552.75 375.668 554.25 374.268 555.45 372.668 C 558.15 368.868 561.55 368.768 564.35 372.268 C 566.25 374.668 566.25 375.068 564.85 378.468 C 561.95 385.668 556.85 392.968 552.25 396.968 C 549.65 399.168 547.75 401.368 548.05 401.768 C 549.15 403.568 551.95 402.468 556.55 398.368 C 559.15 396.068 562.65 393.168 564.35 391.868 C 566.35 390.368 568.25 387.168 570.35 381.668 C 573.75 372.868 574.15 368.568 571.95 364.268 C 571.15 362.768 570.45 361.068 570.45 360.568 C 570.45 359.268 581.25 359.468 582.05 360.768 Z  M 467.05 526.168 C 480.55 532.668 490.45 541.868 490.45 547.968 C 490.45 554.268 477.05 562.868 461.15 566.668 C 452.55 568.768 448.35 569.068 442.15 568.068 L 438.45 567.368 L 442.35 563.168 C 444.55 560.768 447.25 557.068 448.35 554.768 C 451.35 548.968 454.45 535.268 454.45 527.768 L 454.45 521.468 L 457.25 522.168 C 458.75 522.468 463.15 524.368 467.05 526.168 Z  M 591.35 529.268 C 585.45 535.668 560.05 550.768 549.65 554.168 C 541.95 556.668 530.95 564.368 522.35 573.368 C 508.35 587.868 484.25 609.168 473.15 616.868 C 464.05 623.068 457.35 626.068 437.95 632.268 C 420.05 638.068 419.85 638.068 407.45 638.168 C 396.55 638.168 394.45 637.868 390.95 636.068 C 385.85 633.268 384.05 631.268 381.35 625.168 C 378.65 619.068 378.35 608.968 380.85 605.168 C 381.85 603.668 385.75 601.168 390.15 599.068 C 394.35 597.168 399.65 594.168 401.85 592.368 C 404.15 590.568 407.55 588.068 409.55 586.868 L 413.25 584.668 L 419.25 589.168 C 426.95 594.968 432.25 597.268 441.35 598.768 C 457.05 601.368 468.25 596.268 494.65 574.768 C 500.35 570.068 510.85 562.468 517.95 557.768 C 525.15 553.068 535.35 546.068 540.75 542.268 C 552.55 534.068 557.05 532.168 569.45 530.668 C 574.65 530.068 581.65 528.968 584.95 528.168 C 593.75 526.268 594.15 526.268 591.35 529.268 Z  M 601.75 560.468 C 596.65 565.268 589.05 573.168 584.85 578.168 C 580.55 583.068 576.55 587.568 575.85 588.168 C 574.25 589.468 535.65 640.368 534.25 643.068 C 532.35 646.668 515.85 669.868 511.55 675.168 C 505.75 682.268 504.25 682.768 498.15 680.468 C 492.65 678.368 469.75 672.668 466.75 672.668 C 465.75 672.668 464.35 672.268 463.55 671.768 C 461.95 670.768 462.05 670.368 472.05 654.368 C 476.15 647.968 479.45 642.368 479.45 642.068 C 479.45 640.568 492.55 623.668 502.45 612.368 C 513.75 599.468 522.35 591.268 530.45 585.668 C 544.75 575.768 556.75 568.068 562.45 565.168 C 575.45 558.668 597.95 551.768 606.45 551.768 L 610.95 551.768 L 601.75 560.468 Z  M 617.35 571.368 C 619.25 577.968 619.05 578.368 610.25 582.868 C 605.65 585.268 601.25 587.368 600.45 587.568 C 599.65 587.768 596.75 589.468 594.15 591.368 C 587.95 595.968 586.55 594.568 592.45 589.768 C 594.95 587.768 600.95 581.968 605.95 576.968 C 610.85 571.868 615.25 567.668 615.65 567.668 C 616.05 567.668 616.85 569.368 617.35 571.368 Z " fill="rgb(255,255,255)"/><path d=" M 396.45 323.768 C 393.95 324.768 390.55 328.368 390.45 330.068 C 390.45 330.468 391.35 330.668 392.45 330.368 C 393.85 329.968 394.45 330.368 394.45 331.568 C 394.45 334.368 397.75 336.668 401.85 336.668 C 405.35 336.668 414.95 332.768 420.55 329.068 C 423.35 327.268 421.95 327.068 443.35 332.368 C 445.25 332.868 445.55 332.668 444.85 331.568 C 444.35 330.768 443.95 329.468 443.95 328.668 C 443.95 327.868 441.65 326.268 438.45 324.968 C 433.45 322.968 431.25 322.768 415.95 322.768 C 406.65 322.768 397.85 323.268 396.45 323.768 Z " fill="rgb(255,255,255)"/><path d=" M 413.25 336.068 C 411.95 337.368 409.05 339.668 406.65 341.068 C 403.55 342.968 402.45 344.268 402.85 345.368 C 403.25 346.268 402.75 347.468 401.85 348.168 C 399.05 350.168 400.85 353.068 404.35 352.368 C 406.55 351.868 407.85 352.368 409.85 354.168 C 413.25 357.368 419.25 357.368 419.65 354.268 C 420.05 351.468 426.25 349.768 429.95 351.468 C 432.75 352.768 433.35 356.068 430.95 357.068 C 428.85 357.868 429.05 361.468 431.25 362.068 C 432.15 362.268 435.95 362.768 439.75 363.168 C 447.85 363.968 448.85 362.868 445.25 356.568 C 442.45 351.368 434.05 346.468 423.35 343.768 C 419.35 342.768 415.85 341.368 415.65 340.768 C 415.05 338.968 421.25 339.468 424.15 341.368 C 426.75 343.068 426.85 343.068 426.15 341.368 C 425.75 340.368 425.45 339.168 425.45 338.668 C 425.45 337.868 417.65 333.668 416.15 333.668 C 415.85 333.668 414.55 334.768 413.25 336.068 Z " fill="rgb(255,255,255)"/><path d=" M 467.55 944.468 C 467.05 945.468 454.55 979.168 439.95 1019.268 C 409.55 1102.368 409.35 1102.768 405.85 1107.368 C 402.15 1112.268 398.95 1113.968 391.55 1115.168 C 387.95 1115.768 385.05 1116.668 385.25 1117.268 C 385.55 1118.668 435.65 1118.468 436.15 1117.068 C 436.35 1116.368 434.65 1115.768 431.95 1115.468 C 420.75 1114.168 420.75 1109.868 431.65 1077.468 C 436.05 1064.068 440.15 1052.568 440.75 1051.868 C 441.45 1050.968 447.95 1050.668 467.05 1050.668 C 491.25 1050.668 492.45 1050.768 493.45 1052.668 C 495.35 1056.268 515.45 1109.968 515.45 1111.468 C 515.45 1112.368 514.75 1113.868 513.75 1114.868 C 512.85 1115.868 512.45 1116.968 512.85 1117.368 C 513.25 1117.768 523.75 1118.168 536.15 1118.168 C 553.35 1118.168 558.85 1117.868 559.15 1116.868 C 559.45 1116.068 558.55 1115.668 556.75 1115.668 C 550.35 1115.668 543.85 1112.768 539.45 1108.068 C 532.55 1100.568 530.05 1094.668 486.75 981.668 C 471.75 942.768 470.15 939.568 467.55 944.468 Z  M 478.45 1009.668 C 484.65 1027.268 489.55 1041.968 489.25 1042.168 C 488.95 1042.468 478.65 1042.568 466.25 1042.468 L 443.75 1042.168 L 453.85 1011.168 C 465.65 974.968 465.15 976.368 466.25 977.068 C 466.75 977.368 472.25 992.068 478.45 1009.668 Z " fill="rgb(255,255,255)"/><path d=" M 86.85 991.568 C 68.25 994.568 57.25 1009.268 60.55 1027.068 C 62.55 1038.268 68.35 1046.168 83.95 1059.168 C 104.15 1076.068 108.05 1081.868 107.25 1094.068 C 106.95 1099.268 106.25 1101.468 103.85 1104.868 C 96.25 1115.768 77.25 1117.568 66.85 1108.368 C 62.35 1104.568 60.75 1101.268 59.85 1094.868 C 59.15 1089.568 58.05 1088.168 57.05 1091.368 C 56.15 1094.268 55.95 1114.068 56.75 1115.368 C 57.25 1116.068 60.75 1117.568 64.55 1118.768 C 74.75 1121.868 91.45 1121.268 99.65 1117.468 C 112.45 1111.568 119.75 1100.468 119.85 1086.668 C 119.85 1071.468 114.25 1062.268 95.25 1046.868 C 75.25 1030.568 71.45 1025.768 71.45 1016.168 C 71.45 1003.968 80.05 997.068 94.25 997.868 C 105.55 998.468 111.75 1002.968 113.25 1011.568 C 114.25 1017.868 116.45 1018.168 116.45 1011.968 C 116.45 1009.368 116.75 1004.168 117.05 1000.568 L 117.75 994.068 L 110.85 992.868 C 100.65 991.168 92.55 990.768 86.85 991.568 Z " fill="rgb(255,255,255)"/><path d=" M 259.75 991.768 C 258.75 992.768 258.45 1005.568 258.45 1048.568 C 258.35 1101.768 257.95 1111.568 255.65 1113.868 C 255.05 1114.468 252.55 1115.168 250.05 1115.368 C 247.05 1115.768 245.45 1116.368 245.45 1117.268 C 245.45 1118.368 249.15 1118.668 264.95 1118.668 C 280.85 1118.668 284.45 1118.368 284.45 1117.268 C 284.45 1116.368 282.75 1115.768 279.35 1115.468 C 269.35 1114.468 268.95 1112.768 268.05 1067.668 C 267.65 1050.868 267.15 1032.868 266.85 1027.668 L 266.35 1018.168 L 271.65 1023.668 C 274.55 1026.668 286.15 1039.268 297.45 1051.668 C 325.55 1082.468 362.45 1119.868 364.35 1119.468 C 365.75 1119.168 366.05 1112.668 366.45 1059.968 C 367.05 993.868 366.55 997.968 374.05 996.768 C 376.15 996.468 377.95 995.568 378.25 994.868 C 378.55 993.968 374.35 993.668 359.45 993.668 C 344.55 993.668 340.35 993.968 340.65 994.868 C 340.95 995.568 343.35 996.368 346.15 996.668 C 352.25 997.268 354.15 998.768 355.35 1003.568 C 355.85 1005.568 356.55 1023.568 356.95 1043.668 C 357.25 1063.768 357.75 1083.468 358.05 1087.568 C 358.45 1091.868 358.25 1094.768 357.75 1094.568 C 357.25 1094.368 348.75 1085.368 338.85 1074.668 C 320.75 1054.868 275.15 1005.568 265.95 995.868 C 261.95 991.668 260.75 990.768 259.75 991.768 Z " fill="rgb(255,255,255)"/><path d=" M 725.65 991.668 C 701.45 994.968 683.05 1010.068 674.35 1033.668 C 670.25 1044.668 669.25 1059.268 671.95 1071.268 C 677.25 1096.068 694.55 1113.968 718.05 1119.268 C 728.35 1121.468 747.35 1120.768 755.75 1117.768 C 779.05 1109.568 794.45 1091.768 799.05 1067.968 C 805.85 1032.168 788.15 1002.168 755.25 993.768 C 746.05 991.468 733.85 990.568 725.65 991.668 Z  M 748.25 999.468 C 764.35 1004.568 776.15 1017.868 781.55 1037.168 C 783.35 1043.568 783.85 1047.768 783.85 1058.168 C 783.85 1078.268 779.45 1091.268 769.25 1101.668 C 752.25 1118.968 722.15 1117.868 703.95 1099.268 C 693.15 1088.268 687.75 1074.468 686.75 1055.668 C 685.25 1025.968 698.35 1004.068 721.15 998.768 C 728.05 997.168 741.85 997.568 748.25 999.468 Z " fill="rgb(255,255,255)"/><path d=" M 216.05 992.368 C 215.65 992.868 200.45 993.368 182.35 993.668 C 161.65 993.968 149.35 994.568 149.15 995.168 C 149.05 995.668 151.15 996.468 153.85 996.768 C 161.45 997.568 162.15 998.968 162.95 1016.368 C 163.95 1035.968 162.85 1105.068 161.45 1109.868 C 160.25 1113.968 158.05 1115.668 154.05 1115.668 C 152.55 1115.668 151.45 1116.268 151.45 1116.968 C 151.45 1118.068 157.55 1118.468 183.15 1118.968 C 200.55 1119.268 215.75 1119.168 216.95 1118.668 C 219.75 1117.568 220.05 1116.668 221.55 1106.168 C 222.45 1099.768 222.45 1097.268 221.65 1096.468 C 220.85 1095.668 220.35 1095.868 219.95 1097.268 C 215.85 1110.468 213.95 1111.668 197.65 1111.668 C 184.85 1111.668 180.05 1110.268 178.45 1106.168 C 177.85 1104.668 177.45 1093.068 177.45 1079.568 L 177.45 1055.668 L 189.25 1055.668 C 201.15 1055.668 207.75 1056.768 209.15 1058.968 C 209.55 1059.668 210.15 1061.968 210.45 1064.068 C 210.75 1066.268 211.45 1068.168 212.05 1068.368 C 213.25 1068.768 216.15 1045.068 215.05 1043.968 C 214.75 1043.568 213.25 1044.368 211.85 1045.768 C 209.45 1048.068 208.65 1048.168 193.35 1048.468 L 177.45 1048.868 L 177.45 1024.768 L 177.45 1000.668 L 188.25 1000.668 C 205.95 1000.768 211.65 1003.068 212.95 1010.768 C 213.65 1014.568 215.15 1015.968 215.85 1013.368 C 216.05 1012.768 216.65 1007.868 217.25 1002.668 C 218.35 993.868 217.95 990.568 216.05 992.368 Z " fill="rgb(255,255,255)"/><path d=" M 554.05 992.568 C 553.65 993.168 552.45 997.768 551.35 1002.768 C 549.05 1013.668 549.95 1015.968 553.95 1009.168 C 557.75 1002.568 559.95 1001.968 579.45 1001.568 L 595.95 1001.168 L 596.25 1046.168 C 596.55 1097.468 595.75 1111.168 592.35 1113.868 C 591.25 1114.868 588.95 1115.668 587.35 1115.668 C 585.45 1115.668 584.45 1116.168 584.45 1117.168 C 584.45 1118.468 587.45 1118.668 605.45 1118.668 C 622.65 1118.668 626.45 1118.368 626.45 1117.268 C 626.45 1116.368 624.75 1115.768 620.85 1115.468 C 617.75 1115.168 614.65 1114.368 613.75 1113.468 C 612.85 1112.568 611.85 1108.868 611.35 1104.568 C 610.35 1095.468 610.15 1001.968 611.25 1001.368 C 611.65 1001.168 618.95 1001.268 627.55 1001.568 C 646.25 1002.368 649.35 1003.568 650.85 1010.468 C 651.45 1012.768 652.45 1014.668 653.15 1014.668 C 654.15 1014.668 654.45 1012.068 654.45 1003.868 L 654.45 993.168 L 608.75 993.168 C 583.55 993.168 561.05 992.768 558.85 992.368 C 556.15 991.868 554.45 991.868 554.05 992.568 Z " fill="rgb(255,255,255)"/><path d=" M 818.65 994.868 C 818.95 995.568 819.75 996.268 820.55 996.368 C 828.85 997.468 829.65 997.768 831.05 1001.368 C 832.35 1004.368 832.55 1012.768 832.25 1057.068 C 831.85 1117.568 832.35 1114.468 823.05 1115.868 C 821.95 1116.068 821.15 1116.568 821.25 1117.168 C 821.35 1117.768 828.95 1118.168 841.45 1118.168 C 853.95 1118.168 861.55 1117.768 861.75 1117.168 C 861.85 1116.568 859.55 1115.868 856.55 1115.468 C 853.65 1115.168 850.55 1114.168 849.75 1113.368 C 847.25 1110.968 846.55 1104.268 846.45 1084.368 L 846.45 1065.668 L 857.45 1065.668 L 868.35 1065.668 L 883.15 1085.368 C 906.95 1117.368 907.75 1117.968 929.35 1118.468 C 941.05 1118.768 943.55 1118.568 943.25 1117.468 C 942.95 1116.768 940.45 1115.868 937.15 1115.468 C 925.05 1113.968 916.65 1106.668 893.65 1077.368 L 881.25 1061.668 L 887.35 1054.968 C 907.85 1032.668 905.05 1006.068 881.25 996.368 C 876.35 994.368 873.95 994.168 847.05 993.868 C 823.55 993.568 818.35 993.768 818.65 994.868 Z  M 870.95 1002.068 C 880.55 1006.468 885.45 1015.068 886.25 1028.768 C 887.05 1043.368 882.85 1054.368 874.85 1058.168 C 870.35 1060.368 857.65 1060.668 850.65 1058.768 L 846.45 1057.568 L 846.45 1029.268 C 846.45 1013.768 846.75 1000.668 847.15 1000.368 C 847.45 999.968 851.85 999.668 856.85 999.668 C 864.25 999.668 866.85 1000.068 870.95 1002.068 Z " fill="rgb(255,255,255)"/><path d=" M 279.75 1176.168 C 273.45 1178.868 270.65 1187.568 273.85 1194.968 C 274.55 1196.768 278.85 1201.568 283.45 1205.668 C 295.75 1216.868 297.45 1221.868 290.95 1228.368 C 287.65 1231.668 287.05 1231.868 282.35 1231.468 C 276.65 1230.868 273.65 1228.568 271.75 1223.368 C 270.65 1220.268 270.65 1220.268 270.55 1225.868 C 270.45 1232.968 271.95 1234.068 281.45 1234.168 C 301.25 1234.268 306.25 1213.968 289.65 1201.368 C 281.15 1194.968 277.45 1190.268 277.45 1185.868 C 277.45 1180.268 281.05 1177.168 287.45 1177.268 C 292.85 1177.368 294.95 1178.568 296.95 1183.068 L 298.25 1186.168 L 298.35 1181.068 C 298.45 1176.568 298.15 1175.868 296.25 1175.268 C 292.25 1174.268 283.05 1174.668 279.75 1176.168 Z " fill="rgb(255,255,255)"/><path d=" M 351.45 1201.868 C 351.45 1216.868 351.05 1229.668 350.65 1230.368 C 350.25 1231.068 348.75 1231.968 347.45 1232.468 C 345.65 1233.168 347.55 1233.468 354.45 1233.368 C 362.15 1233.368 363.35 1233.168 360.75 1232.368 C 359.05 1231.868 357.25 1230.668 356.85 1229.768 C 356.45 1228.868 355.85 1218.768 355.55 1207.368 L 354.95 1186.568 L 360.35 1192.368 C 378.65 1211.968 399.75 1233.668 400.55 1233.668 C 401.05 1233.668 401.55 1221.668 401.65 1205.968 L 401.95 1178.268 L 404.45 1176.968 C 406.65 1175.868 405.85 1175.668 397.95 1175.768 C 392.25 1175.868 390.25 1176.168 392.45 1176.568 C 394.95 1176.968 396.05 1177.768 396.55 1179.668 C 396.95 1181.068 397.25 1191.368 397.35 1202.668 C 397.35 1219.068 397.15 1222.868 396.15 1221.568 C 393.15 1217.568 352.95 1174.668 352.25 1174.668 C 351.85 1174.668 351.45 1186.968 351.45 1201.868 Z " fill="rgb(255,255,255)"/><path d=" M 437.65 1176.068 C 425.05 1180.168 417.95 1190.568 418.15 1204.768 C 418.35 1221.568 429.55 1232.368 448.95 1234.268 C 454.75 1234.868 466.05 1233.468 467.65 1231.868 C 468.05 1231.468 468.65 1228.468 468.95 1225.168 C 469.35 1220.368 469.25 1219.768 468.45 1222.268 C 466.65 1227.968 463.25 1230.068 454.85 1230.468 C 445.85 1230.968 440.05 1229.068 434.25 1223.868 C 427.95 1218.168 425.05 1211.568 425.05 1202.668 C 424.85 1185.468 432.65 1177.568 449.55 1177.568 C 460.75 1177.568 467.45 1181.268 467.45 1187.568 C 467.45 1188.668 467.95 1189.868 468.45 1190.168 C 469.05 1190.568 469.45 1188.168 469.45 1183.868 C 469.45 1175.468 469.95 1175.768 453.45 1175.068 C 445.25 1174.768 440.75 1175.068 437.65 1176.068 Z " fill="rgb(255,255,255)"/><path d=" M 497.45 1175.668 C 488.95 1175.968 482.85 1176.368 484.05 1176.468 C 488.25 1176.868 488.45 1177.968 488.45 1203.068 C 488.45 1216.368 488.15 1228.168 487.85 1229.268 C 487.55 1230.468 486.35 1231.868 485.15 1232.368 C 483.75 1233.068 487.75 1233.368 498.25 1233.568 L 513.45 1233.668 L 514.45 1231.168 C 515.05 1229.668 515.45 1227.368 515.45 1225.868 L 515.35 1223.168 L 514.05 1226.268 C 512.55 1229.768 510.25 1230.668 503.25 1230.668 C 495.35 1230.668 494.45 1228.968 494.45 1215.168 L 494.45 1203.668 L 499.85 1203.668 C 507.05 1203.668 510.45 1204.968 510.55 1207.868 C 510.65 1210.268 512.25 1203.568 512.35 1200.168 C 512.45 1198.668 512.15 1198.568 511.25 1199.468 C 510.55 1200.168 506.95 1200.668 502.25 1200.668 L 494.45 1200.668 L 494.45 1189.668 L 494.45 1178.668 L 501.05 1178.668 C 508.55 1178.668 511.45 1179.868 511.45 1182.968 C 511.55 1184.968 511.65 1184.968 512.55 1183.368 C 513.15 1182.468 513.45 1180.168 513.25 1178.368 L 512.95 1175.168 L 497.45 1175.668 Z " fill="rgb(255,255,255)"/><path d=" M 555.65 1175.768 C 551.65 1176.968 551.05 1178.368 551.95 1184.468 C 552.75 1188.968 552.75 1188.968 553.45 1186.168 C 554.65 1180.968 556.35 1178.768 560.45 1177.568 C 563.65 1176.568 565.15 1176.668 568.05 1177.768 C 574.05 1180.068 575.95 1183.568 575.95 1191.968 C 575.85 1202.268 572.85 1207.468 559.35 1221.068 C 553.35 1227.068 548.45 1232.168 548.45 1232.368 C 548.45 1232.468 556.15 1232.668 565.45 1232.668 L 582.45 1232.668 L 583.45 1230.068 C 584.05 1228.668 584.75 1225.668 585.05 1223.368 L 585.65 1219.168 L 583.75 1222.668 C 581.35 1227.268 577.45 1228.568 565.65 1228.568 L 556.35 1228.668 L 566.25 1218.868 C 578.15 1207.068 582.75 1199.268 582.85 1190.768 C 582.95 1180.068 576.85 1174.568 565.25 1174.768 C 561.75 1174.768 557.45 1175.268 555.65 1175.768 Z " fill="rgb(255,255,255)"/><path d=" M 609.95 1175.868 C 608.85 1176.468 606.45 1178.268 604.65 1179.968 C 595.45 1188.768 593.75 1213.868 601.55 1226.168 C 607.65 1235.768 619.65 1237.168 627.75 1229.068 C 633.35 1223.368 635.75 1216.168 635.85 1204.168 C 635.95 1189.668 633.05 1181.968 625.55 1176.968 C 621.85 1174.468 613.55 1173.868 609.95 1175.868 Z  M 621.25 1179.368 C 626.65 1182.768 631.15 1199.668 629.85 1211.468 C 629.05 1218.468 626.05 1226.768 623.55 1229.068 C 620.65 1231.768 615.45 1232.068 611.85 1229.868 C 599.75 1222.268 599.85 1183.368 611.95 1178.068 C 615.15 1176.668 617.55 1176.968 621.25 1179.368 Z " fill="rgb(255,255,255)"/><path d=" M 659.95 1175.868 C 650.35 1181.068 645.75 1192.568 646.65 1208.868 C 647.15 1216.168 647.75 1218.868 650.05 1223.468 C 658.35 1239.468 676.75 1237.468 683.55 1219.768 C 685.25 1215.468 685.75 1211.868 685.85 1204.168 C 685.95 1189.668 683.05 1181.968 675.55 1176.968 C 671.85 1174.468 663.55 1173.868 659.95 1175.868 Z  M 671.25 1179.368 C 679.55 1184.568 682.65 1211.368 676.45 1224.068 C 673.85 1229.468 672.55 1230.668 668.25 1231.268 C 657.85 1232.868 650.25 1214.568 653.25 1195.168 C 655.65 1179.768 662.45 1173.768 671.25 1179.368 Z " fill="rgb(255,255,255)"/><path d=" M 316.25 1176.368 C 320.15 1177.168 320.55 1180.568 320.25 1205.968 C 319.95 1229.068 319.85 1229.868 317.75 1231.568 C 315.65 1233.268 315.85 1233.368 324.75 1233.468 C 333.35 1233.468 333.75 1233.368 330.75 1232.168 C 326.45 1230.368 326.35 1228.968 326.65 1201.168 L 326.95 1178.268 L 329.45 1176.968 C 331.65 1175.868 330.85 1175.668 322.95 1175.868 C 318.05 1175.868 314.95 1176.168 316.25 1176.368 Z " fill="rgb(255,255,255)"/><path d=" M 703.15 1177.368 C 702.85 1178.368 702.35 1183.368 701.95 1188.368 C 701.35 1197.668 701.35 1197.668 703.65 1197.668 C 707.35 1197.668 715.85 1202.068 718.75 1205.568 C 722.15 1209.568 722.85 1212.368 722.25 1218.868 C 721.75 1223.168 721.15 1224.568 718.05 1227.368 C 714.95 1230.268 713.75 1230.668 709.15 1230.668 C 702.85 1230.668 700.95 1229.468 699.05 1224.168 L 697.55 1220.168 L 697.75 1226.668 L 697.95 1233.068 L 701.85 1233.968 C 707.05 1235.268 715.25 1233.368 720.25 1229.668 C 727.05 1224.768 730.25 1214.568 727.35 1206.968 C 725.15 1200.968 716.35 1194.668 708.05 1193.168 C 704.45 1192.468 704.25 1192.268 704.85 1189.368 C 705.15 1187.768 705.45 1185.168 705.45 1183.568 L 705.45 1180.668 L 715.45 1180.668 C 725.25 1180.668 725.45 1180.668 726.85 1183.368 L 728.35 1186.168 L 728.45 1182.468 C 728.45 1180.468 728.75 1178.168 729.05 1177.268 C 729.55 1175.868 728.15 1175.668 716.65 1175.668 C 705.05 1175.668 703.55 1175.868 703.15 1177.368 Z " fill="rgb(255,255,255)"/></svg>